<svg width="34" height="30" viewBox="0 0 34 30" fill="none" xmlns="http://www.w3.org/2000/svg">
<path d="M393.664 0H392.264L400.964 8.7V7.3L393.664 0Z" fill="#898886"/>
<path d="M396.264 0L400.964 4.7V3.3L397.664 0H396.264Z" fill="#898886"/>
<path d="M389.664 0H388.264L400.964 12.7V11.3L389.664 0Z" fill="#898886"/>
<path d="M385.664 0H384.264L400.964 16.7V15.3L385.664 0Z" fill="#898886"/>
<path d="M381.664 0H380.264L400.964 20.7V19.3L381.664 0Z" fill="#898886"/>
<path d="M377.664 0H376.264L400.964 24.7V23.3L377.664 0Z" fill="#898886"/>
<path d="M373.664 0H372.264L400.964 28.7V27.3L373.664 0Z" fill="#898886"/>
<path d="M369.664 0H368.264L400.964 32.7V31.3L369.664 0Z" fill="#898886"/>
<path d="M365.664 0H364.264L400.964 36.7V35.3L365.664 0Z" fill="#898886"/>
<path d="M361.664 0H360.264L400.964 40.7V39.3L361.664 0Z" fill="#898886"/>
<path d="M357.664 0H356.264L400.964 44.7V43.3L357.664 0Z" fill="#898886"/>
<path d="M353.664 0H352.264L400.264 48H400.964V47.3L353.664 0Z" fill="#898886"/>
<path d="M349.664 0H348.264L396.264 48H397.664L349.664 0Z" fill="#898886"/>
<path d="M345.664 0H344.264L392.264 48H393.664L345.664 0Z" fill="#898886"/>
<path d="M341.664 0H340.264L388.264 48H389.664L341.664 0Z" fill="#898886"/>
<path d="M337.664 0H336.264L384.264 48H385.664L337.664 0Z" fill="#898886"/>
<path d="M333.664 0H332.264L380.264 48H381.664L333.664 0Z" fill="#898886"/>
<path d="M329.664 0H328.264L376.264 48H377.664L329.664 0Z" fill="#898886"/>
<path d="M325.664 0H324.264L372.264 48H373.664L325.664 0Z" fill="#898886"/>
<path d="M321.664 0H320.264L368.264 48H369.664L321.664 0Z" fill="#898886"/>
<path d="M317.664 0H316.264L364.264 48H365.664L317.664 0Z" fill="#898886"/>
<path d="M313.664 0H312.264L360.264 48H361.664L313.664 0Z" fill="#898886"/>
<path d="M309.664 0H308.264L356.264 48H357.664L309.664 0Z" fill="#898886"/>
<path d="M305.664 0H304.264L352.264 48H353.664L305.664 0Z" fill="#898886"/>
<path d="M301.664 0H300.264L348.264 48H349.664L301.664 0Z" fill="#898886"/>
<path d="M297.664 0H296.264L344.264 48H345.664L297.664 0Z" fill="#898886"/>
<path d="M293.664 0H292.264L340.264 48H341.664L293.664 0Z" fill="#898886"/>
<path d="M289.664 0H288.264L336.264 48H337.664L289.664 0Z" fill="#898886"/>
<path d="M285.664 0H284.264L332.264 48H333.664L285.664 0Z" fill="#898886"/>
<path d="M281.664 0H280.264L328.264 48H329.664L281.664 0Z" fill="#898886"/>
<path d="M277.664 0H276.264L324.264 48H325.664L277.664 0Z" fill="#898886"/>
<path d="M273.664 0H272.264L320.264 48H321.664L273.664 0Z" fill="#898886"/>
<path d="M269.664 0H268.264L316.264 48H317.664L269.664 0Z" fill="#898886"/>
<path d="M265.664 0H264.264L312.264 48H313.664L265.664 0Z" fill="#898886"/>
<path d="M261.664 0H260.264L308.264 48H309.664L261.664 0Z" fill="#898886"/>
<path d="M257.664 0H256.264L304.264 48H305.664L257.664 0Z" fill="#898886"/>
<path d="M253.664 0H252.264L300.264 48H301.664L253.664 0Z" fill="#898886"/>
<path d="M249.664 0H248.264L296.264 48H297.664L249.664 0Z" fill="#898886"/>
<path d="M245.664 0H244.264L292.264 48H293.664L245.664 0Z" fill="#898886"/>
<path d="M241.664 0H240.264L288.264 48H289.664L241.664 0Z" fill="#898886"/>
<path d="M237.664 0H236.264L284.264 48H285.664L237.664 0Z" fill="#898886"/>
<path d="M233.664 0H232.264L280.264 48H281.664L233.664 0Z" fill="#898886"/>
<path d="M229.664 0H228.264L276.264 48H277.664L229.664 0Z" fill="#898886"/>
<path d="M225.664 0H224.264L272.264 48H273.664L225.664 0Z" fill="#898886"/>
<path d="M221.664 0H220.264L268.264 48H269.664L221.664 0Z" fill="#898886"/>
<path d="M217.664 0H216.264L264.264 48H265.664L217.664 0Z" fill="#898886"/>
<path d="M213.664 0H212.264L260.264 48H261.664L213.664 0Z" fill="#898886"/>
<path d="M209.664 0H208.264L256.264 48H257.664L209.664 0Z" fill="#898886"/>
<path d="M205.664 0H204.264L252.264 48H253.664L205.664 0Z" fill="#898886"/>
<path d="M201.664 0H200.264L248.264 48H249.664L201.664 0Z" fill="#898886"/>
<path d="M197.664 0H196.264L244.264 48H245.664L197.664 0Z" fill="#898886"/>
<path d="M193.664 0H192.264L240.264 48H241.664L193.664 0Z" fill="#898886"/>
<path d="M189.664 0H188.264L236.264 48H237.664L189.664 0Z" fill="#898886"/>
<path d="M185.664 0H184.264L232.264 48H233.664L185.664 0Z" fill="#898886"/>
<path d="M181.664 0H180.264L228.264 48H229.664L181.664 0Z" fill="#898886"/>
<path d="M177.664 0H176.264L224.264 48H225.664L177.664 0Z" fill="#898886"/>
<path d="M173.664 0H172.264L220.264 48H221.664L173.664 0Z" fill="#898886"/>
<path d="M169.664 0H168.264L216.264 48H217.664L169.664 0Z" fill="#898886"/>
<path d="M165.664 0H164.264L212.264 48H213.664L165.664 0Z" fill="#898886"/>
<path d="M161.664 0H160.264L208.264 48H209.664L161.664 0Z" fill="#898886"/>
<path d="M157.664 0H156.264L204.264 48H205.664L157.664 0Z" fill="#898886"/>
<path d="M153.664 0H152.264L200.264 48H201.664L153.664 0Z" fill="#898886"/>
<path d="M149.664 0H148.264L196.264 48H197.664L149.664 0Z" fill="#898886"/>
<path d="M145.664 0H144.264L192.264 48H193.664L145.664 0Z" fill="#898886"/>
<path d="M141.664 0H140.264L188.264 48H189.664L141.664 0Z" fill="#898886"/>
<path d="M137.664 0H136.264L184.264 48H185.664L137.664 0Z" fill="#898886"/>
<path d="M133.664 0H132.264L180.264 48H181.664L133.664 0Z" fill="#898886"/>
<path d="M129.664 0H128.264L176.264 48H177.664L129.664 0Z" fill="#898886"/>
<path d="M125.664 0H124.264L172.264 48H173.664L125.664 0Z" fill="#898886"/>
<path d="M121.664 0H120.264L168.264 48H169.664L121.664 0Z" fill="#898886"/>
<path d="M117.664 0H116.264L164.264 48H165.664L117.664 0Z" fill="#898886"/>
<path d="M113.664 0H112.264L160.264 48H161.664L113.664 0Z" fill="#898886"/>
<path d="M109.664 0H108.264L156.264 48H157.664L109.664 0Z" fill="#898886"/>
<path d="M105.664 0H104.264L152.264 48H153.664L105.664 0Z" fill="#898886"/>
<path d="M101.664 0H100.264L148.264 48H149.664L101.664 0Z" fill="#898886"/>
<path d="M97.6644 0H96.2644L144.264 48H145.664L97.6644 0Z" fill="#898886"/>
<path d="M93.6644 0H92.2644L140.264 48H141.664L93.6644 0Z" fill="#898886"/>
<path d="M89.6644 0H88.2644L136.264 48H137.664L89.6644 0Z" fill="#898886"/>
<path d="M85.6644 0H84.2644L132.264 48H133.664L85.6644 0Z" fill="#898886"/>
<path d="M81.6644 0H80.2644L128.264 48H129.664L81.6644 0Z" fill="#898886"/>
<path d="M77.6644 0H76.2644L124.264 48H125.664L77.6644 0Z" fill="#898886"/>
<path d="M73.6644 0H72.2644L120.264 48H121.664L73.6644 0Z" fill="#898886"/>
<path d="M69.6644 0H68.2644L116.264 48H117.664L69.6644 0Z" fill="#898886"/>
<path d="M65.6644 0H64.2644L112.264 48H113.664L65.6644 0Z" fill="#898886"/>
<path d="M61.6644 0H60.2644L108.264 48H109.664L61.6644 0Z" fill="#898886"/>
<path d="M57.6644 0H56.2644L104.264 48H105.664L57.6644 0Z" fill="#898886"/>
<path d="M53.6644 0H52.2644L100.264 48H101.664L53.6644 0Z" fill="#898886"/>
<path d="M49.6644 0H48.2644L96.2644 48H97.6644L49.6644 0Z" fill="#898886"/>
<path d="M45.6644 0H44.2644L92.2644 48H93.6644L45.6644 0Z" fill="#898886"/>
<path d="M41.6644 0H40.2644L88.2644 48H89.6644L41.6644 0Z" fill="#898886"/>
<path d="M37.6644 0H36.2644L84.2644 48H85.6644L37.6644 0Z" fill="#898886"/>
<path d="M33.6644 0H32.2644L80.2644 48H81.6644L33.6644 0Z" fill="#898886"/>
<path d="M29.6644 0H28.2644L76.2644 48H77.6644L29.6644 0Z" fill="#898886"/>
<path d="M25.6644 0H24.2644L72.2644 48H73.6644L25.6644 0Z" fill="#898886"/>
<path d="M21.6644 0H20.2644L68.2644 48H69.6644L21.6644 0Z" fill="#898886"/>
<path d="M17.6644 0H16.2644L64.2644 48H65.6644L17.6644 0Z" fill="#898886"/>
<path d="M13.6644 0H12.2644L60.2644 48H61.6644L13.6644 0Z" fill="#898886"/>
<path d="M9.66436 0H8.26436L56.2644 48H57.6644L9.66436 0Z" fill="#898886"/>
<path d="M5.66436 0H4.26436L52.2644 48H53.6644L5.66436 0Z" fill="#898886"/>
<path d="M1.66436 0H0.964355V0.7L48.2644 48H49.6644L1.66436 0Z" fill="#898886"/>
<path d="M0.964355 3.3V4.7L44.2644 48H45.6644L0.964355 3.3Z" fill="#898886"/>
<path d="M0.964355 7.3V8.7L40.2644 48H41.6644L0.964355 7.3Z" fill="#898886"/>
<path d="M0.964355 11.3V12.7L36.2644 48H37.6644L0.964355 11.3Z" fill="#898886"/>
<path d="M0.964355 15.3V16.7L32.2644 48H33.6644L0.964355 15.3Z" fill="#898886"/>
<path d="M0.964355 19.3V20.7L28.2644 48H29.6644L0.964355 19.3Z" fill="#898886"/>
<path d="M0.964355 23.3V24.7L24.2644 48H25.6644L0.964355 23.3Z" fill="#898886"/>
<path d="M0.964355 27.3V28.7L20.2644 48H21.6644L0.964355 27.3Z" fill="#898886"/>
<path d="M0.964355 31.3V32.7L16.2644 48H17.6644L0.964355 31.3Z" fill="#898886"/>
<path d="M0.964355 35.3V36.7L12.2644 48H13.6644L0.964355 35.3Z" fill="#898886"/>
<path d="M0.964355 39.3V40.7L8.26436 48H9.66436L0.964355 39.3Z" fill="#898886"/>
<path d="M0.964355 43.3V44.7L4.26436 48H5.66436L0.964355 43.3Z" fill="#898886"/>
<path d="M0.964355 48H1.66436L0.964355 47.3V48Z" fill="#898886"/>
<path d="M400.264 0L400.964 0.7V0H400.264Z" fill="#898886"/>
</svg>
