<svg width="16" height="10" viewBox="0 0 16 10" fill="none" xmlns="http://www.w3.org/2000/svg">
<path d="M8.00005 9.5C3.03105 9.5 0.663049 5.42 0.565049 5.246L0.425049 5L0.565049 4.754C0.663049 4.58 3.03105 0.5 8.00005 0.5C12.969 0.5 15.337 4.58 15.435 4.754L15.575 5L15.435 5.246C15.337 5.42 12.969 9.5 8.00005 9.5ZM1.59205 5.002C2.15905 5.846 4.24105 8.5 8.00005 8.5C11.727 8.5 13.84 5.83 14.408 4.998C13.841 4.154 11.759 1.5 8.00005 1.5C4.27305 1.5 2.16005 4.17 1.59205 5.002ZM8.00005 7.5C6.62205 7.5 5.50005 6.379 5.50005 5C5.50005 3.621 6.62205 2.5 8.00005 2.5C9.37805 2.5 10.5 3.621 10.5 5C10.5 6.379 9.37805 7.5 8.00005 7.5ZM8.00005 3.5C7.17305 3.5 6.50005 4.173 6.50005 5C6.50005 5.827 7.17305 6.5 8.00005 6.5C8.82705 6.5 9.50005 5.827 9.50005 5C9.50005 4.173 8.82705 3.5 8.00005 3.5Z" fill="currentColor"/>
</svg>
