<svg width="16" height="8" viewBox="0 0 16 8" fill="none" xmlns="http://www.w3.org/2000/svg">
<path d="M15.071 4.77799L15.778 4.07099L14.361 2.65499C15.045 1.91899 15.398 1.31099 15.434 1.24599L14.564 0.753991C14.543 0.790991 12.392 4.49999 7.99901 4.49999C3.60601 4.49999 1.52201 0.905991 1.43501 0.752991L0.565008 1.24599C0.602008 1.31099 0.954008 1.91799 1.63801 2.65499L0.221008 4.07099L0.928008 4.77799L2.35701 3.34899C3.10301 4.00199 4.08701 4.65199 5.32101 5.06499L4.79901 7.01199L5.76501 7.27199L6.28601 5.32799C6.81901 5.43599 7.38901 5.49899 8.00001 5.49899C8.61101 5.49899 9.18101 5.43599 9.71401 5.32799L10.235 7.27199L11.201 7.01199L10.679 5.06499C11.912 4.65199 12.897 4.00199 13.643 3.34899L15.071 4.77799Z" fill="currentColor"/>
</svg>
