<?xml version="1.0" encoding="utf-8"?>
<!-- Generator: Adobe Illustrator 25.0.1, SVG Export Plug-In . SVG Version: 6.00 Build 0)  -->
<svg version="1.1" id="Layer_1" xmlns="http://www.w3.org/2000/svg" xmlns:xlink="http://www.w3.org/1999/xlink" x="0px" y="0px"
	 viewBox="0 0 411.2 196.2" style="enable-background:new 0 0 411.2 196.2;" xml:space="preserve">
<style type="text/css">
	.st0{fill:#FFFFFF;}
</style>
<g>
	<path class="st0" d="M152.2,107.5c-4-2.4-8.5-3.6-13.5-3.6c-5.1,0-9.6,1.2-13.6,3.6s-7.1,5.7-9.3,10c-2.2,4.3-3.4,9.1-3.4,14.4
		c0,5.4,1.1,10.2,3.3,14.4s5.3,7.5,9.3,9.9c4,2.4,8.5,3.5,13.6,3.5s9.6-1.2,13.6-3.6c4-2.4,7.1-5.7,9.3-9.9c2.2-4.2,3.4-9,3.4-14.4
		c0-5.4-1.1-10.2-3.4-14.4C159.3,113.2,156.2,109.9,152.2,107.5z M153.1,147.8c-3.6,4.1-8.4,6.1-14.3,6.1c-3.9,0-7.4-0.9-10.4-2.8
		c-3-1.9-5.3-4.4-7-7.8s-2.5-7.1-2.5-11.4c0-4.3,0.8-8.1,2.5-11.5s4-6,7-7.9c3-1.9,6.5-2.8,10.4-2.8c3.9,0,7.3,0.9,10.3,2.8
		c3,1.9,5.3,4.4,7,7.8s2.5,7.2,2.5,11.5C158.5,138.4,156.7,143.8,153.1,147.8z"/>
	<path class="st0" d="M187.1,106.4c-2,1.2-4,3.5-6,6.8c-0.5-1.9-1.3-3.7-2.5-5.3c-1.1-1.6-2.4-2.8-3.6-3.5l-4.3,4.3
		c3,2.7,4.5,6.8,4.5,12.4v37.6h6.4v-38.2c1.8-3.3,3.8-5.8,6.1-7.6s5.3-2.7,8.9-2.7c2.1,0,4.1,0.2,6.2,0.8v-6c-2.1-0.6-4.3-1-6.4-1
		C192.7,103.9,189.6,104.7,187.1,106.4z"/>
	<path class="st0" d="M219.9,153.2c-0.9,0-1.7-0.3-2.4-1c-0.7-0.7-1-1.5-1-2.5V105H210v44.5c0,2.9,0.9,5.2,2.8,7s4.2,2.7,7.1,2.7
		c1.8,0,3.4-0.4,4.8-1.2c1.4-0.8,2.4-1.8,3-3.1l-4.7-3.5C222.4,152.6,221.3,153.2,219.9,153.2z"/>
	<path class="st0" d="M216.2,96.7c0.9-0.9,1.3-1.9,1.3-3.2c0-1.3-0.4-2.4-1.3-3.3c-0.9-0.9-2-1.3-3.3-1.3c-1.2,0-2.3,0.4-3.2,1.3
		c-0.9,0.9-1.3,2-1.3,3.3c0,1.2,0.4,2.3,1.3,3.2s1.9,1.3,3.2,1.3C214.2,98,215.3,97.6,216.2,96.7z"/>
	<path class="st0" d="M280,153.2c-0.9,0-1.7-0.3-2.4-1c-0.7-0.7-1-1.5-1-2.5v-29.8c-0.3-5.2-2-9.2-5-11.9c-3.1-2.7-7.2-4-12.5-4
		c-3.8,0-7.2,0.7-10.1,2.2c-3,1.5-5.7,3.8-8.1,7.1c-0.5-1.9-1.3-3.7-2.5-5.4c-1.2-1.7-2.4-2.9-3.7-3.7l-4.3,4.3
		c3,2.7,4.5,6.8,4.5,12.4v37.7h6.4v-38c2.7-3.7,5.4-6.4,7.9-8.2c2.6-1.8,5.7-2.7,9.3-2.7c7.7,0,11.6,4.3,11.6,12.9v26.9
		c0,2.9,0.9,5.2,2.8,7c1.9,1.8,4.2,2.7,7.1,2.7c1.8,0,3.4-0.4,4.8-1.2c1.4-0.8,2.4-1.8,3-3.1l-4.7-3.5
		C282.5,152.6,281.5,153.2,280,153.2z"/>
	<path class="st0" d="M338.1,153.8c-1,0-1.8-0.4-2.5-1.1s-1-1.8-1-3.3l0.1-68.8h-6.4v24.5c-1.9-0.3-4.1-0.5-6.6-0.7
		c-2.5-0.2-4.6-0.3-6.2-0.3c-5.4,0-10,1.2-14,3.6s-7,5.7-9.2,10c-2.1,4.3-3.2,9.1-3.2,14.5c0,5,0.9,9.6,2.7,13.8
		c1.8,4.2,4.5,7.5,8,10c3.5,2.5,7.7,3.7,12.6,3.7c3.4,0,6.5-0.8,9.3-2.2s5-3.7,6.7-6.6c0,2.4,1,4.5,2.8,6.2c1.9,1.7,4.1,2.6,6.6,2.6
		c1.7,0,3.2-0.3,4.6-0.9c1.3-0.6,2.5-1.7,3.6-3.2l-4.6-3.6C340.4,153.2,339.4,153.8,338.1,153.8z M328.2,138.5
		c0,2.6-0.5,4.9-1.5,6.9c-1.4,2.7-3.3,4.8-5.7,6.3s-5.3,2.2-8.4,2.2c-5.4,0-9.6-2.1-12.6-6.4c-3-4.3-4.6-9.6-4.6-16.1
		c0-6.7,1.7-12,5.2-15.9c3.5-3.9,9.1-5.8,17-5.8c2.2,0,5,0.2,8.4,0.8l2.2,0.3L328.2,138.5L328.2,138.5z"/>
	<path class="st0" d="M399.2,152c-0.8,1.2-1.8,1.8-3.1,1.8c-1,0-1.8-0.4-2.5-1.1s-1-1.8-1-3.3v-44.3h-6.4c-1.9-0.3-4.1-0.5-6.6-0.7
		c-2.5-0.2-4.6-0.3-6.2-0.3c-5.4,0-10,1.2-14.1,3.5s-7.1,5.7-9.2,9.9c-2.1,4.3-3.2,9.1-3.2,14.7c0,5,0.9,9.6,2.7,13.7
		c1.8,4.1,4.4,7.5,7.9,10c3.5,2.5,7.7,3.8,12.7,3.8c3.5,0,6.6-0.8,9.5-2.2c2.8-1.5,5-3.7,6.8-6.6c0,2.4,1,4.5,2.8,6.2
		c1.9,1.7,4.1,2.6,6.6,2.6c1.7,0,3.2-0.3,4.6-0.9c1.3-0.6,2.5-1.7,3.6-3.2L399.2,152z M386.1,138.5c0,2.5-0.5,4.8-1.5,6.9
		c-1.3,2.6-3.2,4.6-5.8,6.2c-2.6,1.6-5.5,2.4-8.7,2.4c-5.5,0-9.7-2.1-12.6-6.4s-4.4-9.4-4.4-15.5c0-6.6,1.6-11.9,4.9-16
		c3.3-4.1,8.2-6.1,14.7-6.1l6.2,0.2l7.1,0.2V138.5z"/>
	<path class="st0" d="M164.1,177.4c-4.7,2.6-13.2,5.6-26.9,5.6c-29.3,0-51.2-16-70.5-30.1c-0.9-0.7-1.8-1.4-2.8-2
		c3.8-3.8,7.9-8.3,12.1-13.7c13-16.7,20.4-29.1,26.3-40.3c15.5-2.6,42.7-11.2,64.7-39.4c11.8-15.2,16.5-30.9,12.1-41
		c-2.2-5.1-6.4-8.2-11.9-8.7c-5.5-0.5-20.4,1.3-39,28.8c-12.1,18-18.3,30.9-24.2,43.2c-1.8,3.8-3.6,7.6-5.6,11.5
		c-5.1,0.7-8.2,0.7-8.4,0.7c-40.7,0-73.8-24.9-73.8-55.5c0-9.5,7.8-17.3,17.3-17.3s17.3,7.8,17.3,17.3h6c0-12.8-10.4-23.3-23.3-23.3
		S10.3,23.6,10.3,36.4c0,33.9,35.8,61.5,79.7,61.5c0.3,0,2.2,0,5.1-0.2c-5.4,10.1-12.4,21.2-23.8,35.7c-2.7,3.5-7,8.7-12.3,13.8
		c-11-7.8-21-13.7-31.1-13.6c-15.4,0.3-22.1,9.1-22.1,17.7c0.1,9,7.7,18.6,21.7,18.6c6.3,0,17.5-2.3,31.9-15
		c1.2,0.9,2.4,1.8,3.7,2.7c19,13.9,42.7,31.3,74,31.3c28.9,0,37.9-12.8,38.3-13.3l-5-3.4C170.6,172.3,168.8,174.8,164.1,177.4z
		 M109.5,82.3c5.8-12.2,11.9-24.8,23.8-42.5c13.1-19.4,25.1-26.3,32.4-26.3c0.4,0,0.7,0,1,0.1c3.2,0.3,5.6,2.1,7,5.1
		c2.6,6.1,1.2,18.9-11.3,34.9c-18.6,23.8-41.5,32.8-56.5,36.2C107.1,87.4,108.3,84.9,109.5,82.3z M27.6,164
		c-10.2,0-15.7-6.5-15.8-12.7c-0.1-5.2,4.2-11.4,16.2-11.6c0.1,0,0.2,0,0.3,0c7.9,0,16.5,5,26.1,11.7C46.5,158.2,37,164,27.6,164z"
		/>
</g>
</svg>
